<svg height="480pt" viewBox="-56 0 480 480" width="480pt" xmlns="http://www.w3.org/2000/svg"><path d="m56 472h288v-96h-288c-26.507812 0-48 21.492188-48 48 .039062 26.492188 21.507812 47.960938 48 48zm0 0" fill="#bddbff"/><path d="m216 112c-28.957031-.015625-54.316406 19.425781-61.8125 47.398438-7.5 27.96875 4.730469 57.488281 29.8125 71.960937 19.777344 11.519531 44.222656 11.519531 64 0 25.082031-14.472656 37.3125-43.992187 29.8125-71.960937-7.496094-27.972657-32.855469-47.414063-61.8125-47.398438zm0 0" fill="#bddbff"/><path d="m184 231.359375v32.640625h64v-32.640625c-19.777344 11.519531-44.222656 11.519531-64 0zm0 0" fill="#bddbff"/><path d="m216 296c17.671875 0 32-14.328125 32-32h-64c0 17.671875 14.328125 32 32 32zm0 0" fill="#bddbff"/><g fill="#3d9ae2"><path d="m360 0h-304c-30.914062.0351562-55.9648438 25.085938-56 56v368c.0390625 30.910156 25.089844 55.960938 56 56h288c4.417969 0 8-3.582031 8-8v-88h8c4.417969 0 8-3.582031 8-8v-368c0-4.417969-3.582031-8-8-8zm-24 416h-280v16h280v32h-280c-22.074219-.039062-39.960938-17.925781-40-40 .027344-22.082031 17.917969-39.972656 40-40h280zm16-48h-296c-1.921875 0-3.847656.101562-5.761719.296875-.621093.0625-1.222656.199219-1.847656.277344-1.253906.179687-2.511719.328125-3.734375.585937-.800781.160156-1.511719.390625-2.273438.582032-1.039062.265624-2.09375.496093-3.117187.800781-.800781.257812-1.601563.585937-2.402344.882812-.925781.335938-1.871093.644531-2.773437 1.03125-.90625.382813-1.601563.75-2.347656 1.128907-.742188.375-1.734376.796874-2.574219 1.261718-.839844.464844-1.503907.914063-2.257813 1.367188-.75.457031-1.597656.953125-2.398437 1.472656s-1.441407 1.074219-2.160157 1.601562c-.71875.527344-1.464843 1.0625-2.160156 1.648438-.695312.582031-1.359375 1.230469-2.039062 1.847656-.679688.613282-1.328125 1.175782-1.953125 1.808594-.070313.078125-.160157.140625-.230469.214844v-328.808594c.027344-22.082031 17.917969-39.972656 40-40h8v328h16v-328h272.03125zm0 0"/><path d="m176 235.625v28.375c0 22.089844 17.910156 40 40 40s40-17.910156 40-40v-28.375c26.371094-17.621094 38.105469-50.417969 28.898438-80.765625-9.203126-30.351563-37.183594-51.101563-68.898438-51.101563s-59.695312 20.75-68.898438 51.101563c-9.207031 30.347656 2.527344 63.144531 28.898438 80.765625zm21.601562 9.976562c2.488282.636719 5.011719 1.144532 7.558594 1.519532 1.023438.152344 2.046875.269531 3.085938.382812 1.898437.199219 3.792968.320313 5.707031.375.695313 0 1.382813.136719 2.078125.136719s1.394531-.121094 2.089844-.136719c1.902344-.054687 3.800781-.175781 5.6875-.375 1.039062-.113281 2.078125-.230468 3.113281-.390625 2.515625-.371093 5.011719-.878906 7.476563-1.511719.480468-.128906.9375-.296874 1.417968-.433593 1.40625-.398438 2.816406-.800781 4.191406-1.289063v12.121094h-48.007812v-12.121094c1.40625.503906 2.847656.90625 4.289062 1.3125.429688.121094.847657.28125 1.3125.410156zm18.398438 42.398438c-10.132812-.042969-19.148438-6.445312-22.527344-16h45.054688c-3.378906 9.554688-12.394532 15.957031-22.527344 16zm0-168c25.316406.046875 47.453125 17.078125 53.992188 41.535156 6.539062 24.457032-4.144532 50.257813-26.054688 62.9375-12.867188 7.3125-28.085938 9.300782-42.402344 5.535156-4.742187-1.234374-9.292968-3.117187-13.519531-5.601562-21.917969-12.667969-32.601563-38.476562-26.046875-62.933594 6.554688-24.457031 28.714844-41.464844 54.03125-41.472656zm0 0"/><path d="m205.640625 189.65625 10.359375-10.34375 10.351562 10.351562c3.125 3.121094 8.1875 3.121094 11.3125 0l16-16-11.3125-11.328124-10.351562 10.351562-10.398438-10.351562c-3.125-3.121094-8.191406-3.121094-11.3125 0l-10.289062 10.34375-10.328125-10.335938-11.3125 11.3125 16 16c3.167969 2.988281 8.113281 2.988281 11.28125 0zm0 0"/><path d="m208 56h16v32h-16zm0 0"/><path d="m125.492188 96.804688 11.316406-11.3125 22.625 22.625-11.3125 11.316406zm0 0"/><path d="m96 168h32v16h-32zm0 0"/><path d="m125.488281 255.195312 22.628907-22.628906 11.3125 11.3125-22.628907 22.628906zm0 0"/><path d="m272.570312 243.890625 11.3125-11.3125 22.628907 22.625-11.3125 11.316406zm0 0"/><path d="m304 168h32v16h-32zm0 0"/><path d="m272.574219 108.117188 22.628906-22.628907 11.3125 11.316407-22.628906 22.625zm0 0"/></g></svg>