<svg height="480pt" viewBox="0 0 480.00002 480" width="480pt" xmlns="http://www.w3.org/2000/svg"><g fill="#bddbff"><path d="m56 232h-16c-17.671875 0-32 14.328125-32 32s14.328125 32 32 32h176v-64zm0 0"/><path d="m40 232h16v-224h-16c-17.671875 0-32 14.328125-32 32v224c0-17.671875 14.328125-32 32-32zm0 0"/><path d="m216 232h16v-224h-176v224zm-120-176h96v48h-96zm0 0"/><path d="m424 328v48h48c0-26.507812-21.492188-48-48-48zm0 0"/><path d="m376 376v48c0 26.507812 21.492188 48 48 48s48-21.492188 48-48v-48zm0 0"/><path d="m424 328c-26.507812 0-48 21.492188-48 48h48zm0 0"/></g><path d="m96 112h96c4.417969 0 8-3.582031 8-8v-48c0-4.417969-3.582031-8-8-8h-96c-4.417969 0-8 3.582031-8 8v48c0 4.417969 3.582031 8 8 8zm8-48h80v32h-80zm0 0" fill="#3d9ae2"/><path d="m432 320.640625v-184.640625c0-39.765625-32.234375-72-72-72s-72 32.234375-72 72v240c0 39.765625-32.234375 72-72 72s-72-32.234375-72-72v-72h72c4.417969 0 8-3.582031 8-8v-56h8c4.417969 0 8-3.582031 8-8v-224c0-4.417969-3.582031-8-8-8h-192c-22.082031.0273438-39.9726562 17.917969-40 40v224c-.0117188 10.613281 4.199219 20.792969 11.703125 28.296875s17.683594 11.714844 28.296875 11.703125h88v72c0 48.601562 39.398438 88 88 88s88-39.398438 88-88v-240c0-30.929688 25.070312-56 56-56s56 25.070312 56 56v184.640625c-27.527344 3.972656-47.96875 27.546875-48 55.359375v48c0 30.929688 25.070312 56 56 56s56-25.070312 56-56v-48c-.03125-27.8125-20.472656-51.386719-48-55.359375zm-288-32.640625v-16h64v16zm80-64h-160v-208h160zm-208-184c0-13.253906 10.746094-24 24-24h8v208h-8c-2.488281.019531-4.972656.269531-7.414062.753906-.800782.140625-1.507813.375-2.257813.566406-1.609375.394532-3.195313.886719-4.742187 1.472657-.800782.320312-1.601563.664062-2.402344 1.03125-1.429688.671875-2.820313 1.429687-4.160156 2.265625-.695313.429687-1.398438.839844-2.0625 1.308594-.3125.226562-.671876.394531-.976563.617187zm24 248c-13.253906 0-24-10.746094-24-24s10.746094-24 24-24h168v16h-168v16h88v16zm423.199219 80h-31.199219v-31.199219c15.699219 3.234375 27.964844 15.5 31.199219 31.199219zm-47.199219-31.199219v31.199219h-31.199219c3.234375-15.699219 15.5-27.964844 31.199219-31.199219zm8 127.199219c-22.082031-.027344-39.972656-17.917969-40-40v-40h80v40c-.027344 22.082031-17.917969 39.972656-40 40zm0 0" fill="#3d9ae2"/></svg>