<?xml version="1.0" encoding="iso-8859-1"?>
<!-- Generator: Adobe Illustrator 19.0.0, SVG Export Plug-In . SVG Version: 6.00 Build 0)  -->
<svg version="1.1" id="Capa_1" xmlns="http://www.w3.org/2000/svg" xmlns:xlink="http://www.w3.org/1999/xlink" x="0px" y="0px"
	 viewBox="0 0 512 512" style="enable-background:new 0 0 512 512;" xml:space="preserve">
<path style="fill:#ED3B72;" d="M499.856,236.931c0,15.454-6.272,29.453-16.397,39.578l-190.288,49.19l-71.199-3.57l-192.843-46.07
	c-9.863-10.083-15.946-23.893-15.946-39.128c0-19.915,10.418-37.4,26.092-47.316c-4.691-7.036-7.423-15.475-7.423-24.563
	c0-24.49,19.852-44.352,44.352-44.352c3.968,0,7.8,0.534,11.465,1.508c6.209-24.145,28.123-41.986,54.205-41.986
	c6.188,0,12.135,1.016,17.705,2.869c10.146-23.642,33.631-40.196,60.99-40.196c10.041,0,19.559,2.241,28.092,6.24
	c2.722,1.277,5.35,2.733,7.853,4.356c2.502-1.623,5.13-3.078,7.853-4.345c8.533-4.01,18.051-6.251,28.102-6.251
	c27.034,0,50.289,16.166,60.613,39.358c0.136,0.272,0.251,0.555,0.377,0.838c4.879-1.623,10.052-2.607,15.423-2.827
	c0.754-0.031,1.518-0.042,2.283-0.042c20.155,0,37.829,10.659,47.672,26.647c2.869,4.638,5.068,9.727,6.481,15.14
	c0.021,0.063,0.031,0.136,0.052,0.199c3.654-0.974,7.497-1.508,11.465-1.508c24.49,0,44.352,19.862,44.352,44.352
	c0,9.088-2.743,17.527-7.434,24.563C489.438,199.531,499.856,217.016,499.856,236.931z"/>
<g>
	<path style="fill:#CE2562;" d="M256.514,53.49l-11.863-0.126c-27.359,0-50.844,16.554-60.99,40.196
		c-5.57-1.853-11.517-2.869-17.705-2.869H165.6c-5.633,0.031-11.067,0.9-16.187,2.481c-17.255,5.329-30.94,18.784-36.604,35.892
		c-0.387,1.183-0.743,2.387-1.058,3.612c-3.654-0.974-7.497-1.508-11.465-1.508c-3.162,0-6.251,0.335-9.224,0.963
		c-20.072,4.24-35.128,22.061-35.128,43.389c0,9.088,2.733,17.527,7.423,24.563c-15.674,9.915-26.092,27.401-26.092,47.316
		c0,12.439,4.063,23.925,10.921,33.212l-19.056-4.555c-9.863-10.093-15.946-23.893-15.946-39.128
		c0-19.915,10.418-37.4,26.092-47.316c-4.691-7.036-7.423-15.475-7.423-24.563c0-24.49,19.852-44.352,44.352-44.352
		c1.256,0,2.502,0.052,3.738,0.157c2.649,0.23,5.235,0.691,7.727,1.351c0.66-2.555,1.487-5.047,2.492-7.455
		c8.408-20.271,28.396-34.531,51.713-34.531c3.434,0,6.795,0.314,10.052,0.911c2.618,0.471,5.172,1.131,7.654,1.958
		c1.037-2.419,2.209-4.754,3.529-7.015c11.455-19.841,32.898-33.181,57.461-33.181C233.825,42.894,246.159,46.789,256.514,53.49z"/>
	<path style="fill:#CE2562;" d="M173.861,141.86c-1.382,0.995-2.995,1.487-4.586,1.487c-2.44,0-4.837-1.131-6.376-3.267
		c-13.193-18.292-14.606-35.62-13.486-46.907c0.586-5.905,1.864-10.167,2.513-12.041c2.618,0.471,5.172,1.131,7.654,1.958
		c1.037-2.419,2.209-4.754,3.529-7.015c3.623,1.822,5.298,6.146,3.748,9.957c-0.094,0.262-0.722,1.916-1.256,4.659
		c-1.476,7.497-2.303,23.087,10.041,40.206C178.175,134.415,177.379,139.315,173.861,141.86z"/>
	<path style="fill:#CE2562;" d="M119.698,160.507c-0.691,0.199-1.393,0.283-2.084,0.283c-3.445,0-6.607-2.283-7.57-5.769
		c-3.539-12.847-12.899-19.684-18.983-22.888c-3.193-1.686-5.486-2.366-5.549-2.377c-3.895-1.11-6.272-4.984-5.57-8.9
		c2.649,0.23,5.235,0.691,7.727,1.351c0.66-2.555,1.487-5.047,2.492-7.455c2.125,0.66,13.161,4.439,22.647,14.313
		c5.13,5.329,9.8,12.439,12.376,21.789C126.336,155.031,123.886,159.356,119.698,160.507z"/>
	<path style="fill:#CE2562;" d="M87.924,252.464c-1.256,0-2.53-0.303-3.713-0.938c-3.82-2.054-5.251-6.816-3.196-10.636
		c7.153-13.298,8.033-25.453,2.616-36.128c-4.2-8.275-10.786-12.783-10.851-12.828c-3.579-2.417-4.557-7.282-2.163-10.876
		c2.394-3.592,7.216-4.595,10.826-2.224c0.979,0.643,9.738,6.613,15.796,18.054c5.72,10.804,9.949,28.499-2.392,51.442
		C93.429,250.966,90.721,252.464,87.924,252.464z"/>
	<path style="fill:#CE2562;" d="M157.88,255.966c-3.598,0-6.841-2.487-7.657-6.144c-0.121-0.541-2.916-13.426,0.653-28.507
		c3.367-14.226,13.082-33.171,40.241-42.635c4.097-1.428,8.573,0.736,9.999,4.831c1.427,4.096-0.736,8.573-4.831,9.999
		c-16.408,5.718-26.544,16.291-30.125,31.423c-2.703,11.421-0.63,21.372-0.608,21.468c0.944,4.232-1.721,8.43-5.954,9.374
		C159.021,255.905,158.446,255.966,157.88,255.966z"/>
	<path style="fill:#CE2562;" d="M368.882,80.263c-0.22,12.093-2.764,37.683-18.752,59.817c-1.529,2.136-3.937,3.267-6.366,3.267
		c-1.591,0-3.204-0.482-4.597-1.487c-3.518-2.544-4.303-7.444-1.77-10.962c12.481-17.308,15.193-37.767,15.685-48.645
		c0.136,0.272,0.251,0.555,0.377,0.838C358.338,81.467,363.511,80.482,368.882,80.263z"/>
	<path style="fill:#CE2562;" d="M425.317,122.008c-6.596,5.968-18.239,18.166-22.323,33.013c-0.963,3.487-4.125,5.769-7.57,5.769
		c-0.691,0-1.393-0.084-2.094-0.283c-4.178-1.152-6.628-5.476-5.486-9.654c6.198-22.49,24.93-39.086,30.992-43.986
		C421.705,111.506,423.904,116.595,425.317,122.008z"/>
	<path style="fill:#CE2562;" d="M425.112,252.464c-2.797,0-5.504-1.498-6.922-4.135c-12.341-22.943-8.112-40.638-2.392-51.442
		c6.058-11.441,14.818-17.411,15.796-18.054c3.624-2.383,8.493-1.375,10.875,2.251c2.374,3.613,1.38,8.462-2.217,10.851
		c-0.213,0.146-6.696,4.646-10.846,12.825c-5.417,10.675-4.538,22.83,2.615,36.128c2.054,3.819,0.624,8.582-3.196,10.636
		C427.642,252.163,426.369,252.464,425.112,252.464z"/>
	<path style="fill:#CE2562;" d="M355.156,255.966c-0.566,0-1.141-0.062-1.717-0.191c-4.225-0.942-6.889-5.126-5.96-9.351
		c0.361-1.686,7.951-39.436-30.728-52.915c-4.095-1.427-6.258-5.904-4.831-9.999c1.427-4.095,5.905-6.261,9.999-4.831
		c27.158,9.464,36.874,28.409,40.241,42.635c3.569,15.08,0.775,27.965,0.653,28.507
		C361.998,253.479,358.753,255.966,355.156,255.966z"/>
	<path style="fill:#CE2562;" d="M264.367,49.145V82.44c0,4.335-3.508,7.853-7.853,7.853c-4.335,0-7.853-3.518-7.853-7.853V49.134
		c2.722,1.277,5.35,2.733,7.853,4.356C259.017,51.867,261.645,50.412,264.367,49.145z"/>
	<path style="fill:#CE2562;" d="M256.518,253.629c-4.337,0-7.853-3.516-7.853-7.853v-42.58c0-4.337,3.516-7.853,7.853-7.853
		c4.337,0,7.853,3.516,7.853,7.853v42.58C264.371,250.113,260.855,253.629,256.518,253.629z"/>
</g>
<path style="fill:#1F3B63;" d="M268.051,299.999c6.921,1.864,13.193,5.319,18.417,9.926c17.13-43.881,60.027-74.853,110.096-74.308
	c64.257,0.712,116.263,54.038,115.425,118.294c-0.827,63.869-52.949,115.362-117.059,115.195
	c-63-0.168-114.965-51.064-116.389-114.054c-0.073-3.12-0.021-6.219,0.147-9.287c0.492-8.827-3.874-16.993-10.847-21.38h-23.694
	c-6.963,4.398-11.329,12.554-10.847,21.38c0.178,3.068,0.23,6.167,0.157,9.287c-1.424,62.99-53.388,113.886-116.399,114.054
	C52.959,469.273,0.837,417.78,0.01,353.911c-0.838-64.257,51.169-117.582,115.425-118.294
	c50.069-0.544,92.966,30.427,110.096,74.308c5.225-4.607,11.486-8.052,18.407-9.926"/>
<g>
	<circle style="fill:#8FF2E1;" cx="116.744" cy="352.359" r="89.721"/>
	<circle style="fill:#8FF2E1;" cx="395.256" cy="352.359" r="89.721"/>
</g>
<path style="fill:#F4E662;" d="M255.998,286.573L255.998,286.573c-6.658,0-12.057,5.397-12.057,12.057v23.496
	c0,6.658,5.397,12.057,12.057,12.057l0,0c6.658,0,12.057-5.397,12.057-12.057v-23.496
	C268.055,291.97,262.656,286.573,255.998,286.573z"/>
<g>
	<path style="fill:#5BBAA8;" d="M413.05,347.165h-68.057c-4.337,0-7.853-3.516-7.853-7.853s3.516-7.853,7.853-7.853h68.057
		c4.337,0,7.853,3.516,7.853,7.853S417.387,347.165,413.05,347.165z"/>
	<path style="fill:#5BBAA8;" d="M413.05,372.294h-68.057c-4.337,0-7.853-3.516-7.853-7.853s3.516-7.853,7.853-7.853h68.057
		c4.337,0,7.853,3.516,7.853,7.853S417.387,372.294,413.05,372.294z"/>
	<path style="fill:#5BBAA8;" d="M168.044,347.165H99.986c-4.337,0-7.853-3.516-7.853-7.853s3.516-7.853,7.853-7.853h68.057
		c4.337,0,7.853,3.516,7.853,7.853S172.381,347.165,168.044,347.165z"/>
	<path style="fill:#5BBAA8;" d="M168.044,372.294H99.986c-4.337,0-7.853-3.516-7.853-7.853s3.516-7.853,7.853-7.853h68.057
		c4.337,0,7.853,3.516,7.853,7.853S172.381,372.294,168.044,372.294z"/>
</g>
<g>
</g>
<g>
</g>
<g>
</g>
<g>
</g>
<g>
</g>
<g>
</g>
<g>
</g>
<g>
</g>
<g>
</g>
<g>
</g>
<g>
</g>
<g>
</g>
<g>
</g>
<g>
</g>
<g>
</g>
</svg>
